<svg width="42" height="48" viewBox="0 0 42 48" fill="none" xmlns="http://www.w3.org/2000/svg">
<g clip-path="url(#clip0_156_34)">
<path d="M22.1357 0.301225C21.4231 -0.100408 20.5769 -0.100408 19.8643 0.301225L1.11347 11.1453C0.400848 11.5469 0 12.3056 0 13.1088V34.8416C0 35.6449 0.445387 36.4035 1.11347 36.8052L19.8643 47.6493C20.5769 48.0509 21.4231 48.0509 22.1357 47.6493L40.8865 36.8052C41.5992 36.4035 42 35.6449 42 34.8416V13.1088C42 12.3056 41.5546 11.5469 40.8865 11.1453L22.1357 0.301225Z" fill="url(#paint0_linear_156_34)"/>
<mask id="mask0_156_34" style="mask-type:luminance" maskUnits="userSpaceOnUse" x="0" y="0" width="42" height="48">
<path d="M22.1357 0.301225C21.4231 -0.100408 20.5769 -0.100408 19.8643 0.301225L1.11347 11.1453C0.400848 11.5469 0 12.3056 0 13.1088V34.8416C0 35.6449 0.445387 36.4035 1.11347 36.8052L19.8643 47.6493C20.5769 48.0509 21.4231 48.0509 22.1357 47.6493L40.8865 36.8052C41.5992 36.4035 42 35.6449 42 34.8416V13.1088C42 12.3056 41.5546 11.5469 40.8865 11.1453L22.1357 0.301225Z" fill="white"/>
</mask>
<g mask="url(#mask0_156_34)">
<path d="M40.931 11.1453L22.0912 0.301224C21.913 0.211972 21.6903 0.12272 21.5122 0.0780945L0.400818 36.3143C0.578973 36.5374 0.801666 36.7159 1.02436 36.8498L19.8642 47.6939C20.3987 48.0063 21.0222 48.0955 21.6012 47.917L41.421 11.5916C41.2874 11.4131 41.1092 11.2792 40.931 11.1453Z" fill="url(#paint1_linear_156_34)"/>
</g>
<mask id="mask1_156_34" style="mask-type:luminance" maskUnits="userSpaceOnUse" x="0" y="0" width="42" height="48">
<path d="M22.1357 0.301225C21.4231 -0.100408 20.5769 -0.100408 19.8643 0.301225L1.11347 11.1453C0.400848 11.5469 0 12.3056 0 13.1088V34.8416C0 35.6449 0.445387 36.4035 1.11347 36.8052L19.8643 47.6493C20.5769 48.0509 21.4231 48.0509 22.1357 47.6493L40.8865 36.8052C41.5992 36.4035 42 35.6449 42 34.8416V13.1088C42 12.3056 41.5546 11.5469 40.8865 11.1453L22.1357 0.301225Z" fill="white"/>
</mask>
<g mask="url(#mask1_156_34)">
<path d="M40.9756 36.8052C41.5101 36.4928 41.9109 35.9573 42.0891 35.3772L21.4231 0.033466C20.8887 -0.0557858 20.3096 -0.0111599 19.8197 0.301221L1.11346 11.1007L21.2895 47.9616C21.5567 47.917 21.8685 47.8278 22.1357 47.6939L40.9756 36.8052Z" fill="url(#paint2_linear_156_34)"/>
</g>
</g>
<defs>
<linearGradient id="paint0_linear_156_34" x1="2863.91" y1="838.502" x2="802.845" y2="4070.6" gradientUnits="userSpaceOnUse">
<stop stop-color="#41873F"/>
<stop offset="0.3288" stop-color="#418B3D"/>
<stop offset="0.6352" stop-color="#419637"/>
<stop offset="0.9319" stop-color="#3FA92D"/>
<stop offset="1" stop-color="#3FAE2A"/>
</linearGradient>
<linearGradient id="paint1_linear_156_34" x1="1775.61" y1="2644.31" x2="6927.48" y2="-149.217" gradientUnits="userSpaceOnUse">
<stop offset="0.1376" stop-color="#41873F"/>
<stop offset="0.4032" stop-color="#54A044"/>
<stop offset="0.7136" stop-color="#66B848"/>
<stop offset="0.9081" stop-color="#6CC04A"/>
</linearGradient>
<linearGradient id="paint2_linear_156_34" x1="-178.72" y1="2398.3" x2="4160.11" y2="2398.3" gradientUnits="userSpaceOnUse">
<stop offset="0.0919165" stop-color="#6CC04A"/>
<stop offset="0.2864" stop-color="#66B848"/>
<stop offset="0.5968" stop-color="#54A044"/>
<stop offset="0.8624" stop-color="#41873F"/>
</linearGradient>
<clipPath id="clip0_156_34">
<rect width="42" height="48" fill="white"/>
</clipPath>
</defs>
</svg>
